HIERARCHY
ROOT Hips
{
	OFFSET	0.00	0.00	0.00
	CHANNELS 6 Xposition Yposition Zposition Zrotation Xrotation Yrotation
	JOINT LeftUpLeg
	{
		OFFSET	 0.126116	-0.014019	-0.065224
		CHANNELS 3 Zrotation Xrotation Yrotation
		JOINT LeftLeg
		{
			OFFSET	 0.000000	 0.000000	 0.569914
			CHANNELS 3 Zrotation Xrotation Yrotation
			JOINT LeftFoot
			{
				OFFSET	 0.000000	 0.000000	 0.544423
				CHANNELS 3 Zrotation Xrotation Yrotation
				JOINT LeftToeBase
				{
					OFFSET	 0.000000	 0.000000	 0.207117
					CHANNELS 3 Zrotation Xrotation Yrotation
					End Site
					{
						OFFSET	 0.000000	 0.000000	 0.207117
					}
				}
			}
		}
	}
	JOINT RightUpLeg
	{
		OFFSET	-0.124023	-0.008373	-0.065224
		CHANNELS 3 Zrotation Xrotation Yrotation
		JOINT RightLeg
		{
			OFFSET	 0.000000	 0.000000	 0.570047
			CHANNELS 3 Zrotation Xrotation Yrotation
			JOINT RightFoot
			{
				OFFSET	 0.000000	 0.000000	 0.544354
				CHANNELS 3 Zrotation Xrotation Yrotation
				JOINT RightToeBase
				{
					OFFSET	 0.000000	 0.000000	 0.207540
					CHANNELS 3 Zrotation Xrotation Yrotation
					End Site
					{
						OFFSET	 0.000000	 0.000000	 0.207540
					}
				}
			}
		}
	}
	JOINT Spine
	{
		OFFSET	 0.000184	-0.007763	 0.117403
		CHANNELS 3 Zrotation Xrotation Yrotation
		JOINT Spine1
		{
			OFFSET	 0.000000	 0.000000	 0.137269
			CHANNELS 3 Zrotation Xrotation Yrotation
			JOINT Spine2
			{
				OFFSET	 0.000000	 0.000000	 0.156879
				CHANNELS 3 Zrotation Xrotation Yrotation
				JOINT LeftShoulder
				{
					OFFSET	 0.080501	-0.002496	 0.160144
					CHANNELS 3 Zrotation Xrotation Yrotation
					JOINT LeftArm
					{
						OFFSET	 0.000000	 0.000000	 0.164363
						CHANNELS 3 Zrotation Xrotation Yrotation
						JOINT LeftForeArm
						{
							OFFSET	 0.000000	 0.000000	 0.364576
							CHANNELS 3 Zrotation Xrotation Yrotation
							JOINT LeftHand
							{
								OFFSET	 0.000000	 0.000000	 0.360812
								CHANNELS 3 Zrotation Xrotation Yrotation
								JOINT LeftHandIndex1
								{
									OFFSET	 0.000000	 0.000000	 0.086006
									CHANNELS 3 Zrotation Xrotation Yrotation
									JOINT LeftHandIndex2
									{
										OFFSET	 0.000000	 0.000000	 0.047236
										CHANNELS 3 Zrotation Xrotation Yrotation
										JOINT LeftHandIndex3
										{
											OFFSET	-0.004284	-0.000551	 0.038166
											CHANNELS 3 Zrotation Xrotation Yrotation
											End Site
											{
												OFFSET	-0.004284	-0.000551	 0.038166
											}
										}
									}
								}
							}
						}
					}
				}
				JOINT Neck
				{
					OFFSET	 0.000000	 0.000000	 0.176489
					CHANNELS 3 Zrotation Xrotation Yrotation
					JOINT Head
					{
						OFFSET	 0.000000	-0.001747	 0.077940
						CHANNELS 3 Zrotation Xrotation Yrotation
						End Site
						{
							OFFSET	 0.000000	-0.001747	 0.077940
						}
					}
				}
				JOINT RightShoulder
				{
					OFFSET	-0.080363	 0.000306	 0.159706
					CHANNELS 3 Zrotation Xrotation Yrotation
					JOINT RightArm
					{
						OFFSET	 0.000000	 0.000000	 0.164196
						CHANNELS 3 Zrotation Xrotation Yrotation
						JOINT RightForeArm
						{
							OFFSET	 0.000000	 0.000000	 0.365611
							CHANNELS 3 Zrotation Xrotation Yrotation
							JOINT RightHand
							{
								OFFSET	 0.000000	 0.000000	 0.360648
								CHANNELS 3 Zrotation Xrotation Yrotation
								JOINT RightHandIndex1
								{
									OFFSET	 0.000000	 0.000000	 0.069977
									CHANNELS 3 Zrotation Xrotation Yrotation
									JOINT RightHandIndex2
									{
										OFFSET	 0.000000	 0.000000	 0.052305
										CHANNELS 3 Zrotation Xrotation Yrotation
										JOINT RightHandIndex3
										{
											OFFSET	 0.009002	-0.000782	 0.042196
											CHANNELS 3 Zrotation Xrotation Yrotation
											End Site
											{
												OFFSET	 0.009002	-0.000782	 0.042196
											}
										}
									}
								}
							}
						}
					}
				}
			}
		}
	}
}
MOTION
Frames:    12
Frame Time: 0.03333334
 0.010641	 0.035681	 1.192609	 5.820303	-0.732632	-3.695028	 9.869947	-11.761960	-173.487700	 1.317538	-41.093870	 0.634205	 66.666170	 82.714120	-70.891720	-2.368365	 31.786110	-0.073805	-18.097090	-34.433110	-175.783500	 12.195660	-51.228580	 10.166870	 32.209050	 83.707270	-28.784950	 2.359024	 32.992270	 0.103040	-0.343039	 8.407789	 0.576404	 1.959756	 2.491001	 3.712481	-9.630053	-2.224398	-4.382731	-94.131960	 58.984610	 174.972900	 16.133860	 33.483180	-37.389150	-2.327259	-0.037145	-0.924904	 1.668871	-6.483764	-8.153637	-4.864117	 19.397640	-2.801106	-3.868697	 21.636620	 2.189714	-4.804019	 5.595485	 0.144043	-0.034604	-5.108150	 0.237532	-11.413160	 1.805238	 1.862061	 89.706660	 61.775310	 179.819400	-18.600780	 51.302590	 7.066839	-1.382989	-2.703463	 14.438850	-5.130726	 9.186848	 0.305383	 6.274849	 23.448830	-0.553073	 2.053838	 43.302710	-7.142570	 0.821212	 22.967340	 3.421537
 0.009668	 0.001051	 1.185975	 6.416784	 0.133431	-4.006573	 9.724799	-11.129640	-173.620700	 1.613905	-41.734730	 0.839625	 79.639240	 83.586560	-84.027830	-2.365857	 32.191100	-0.083039	-20.234050	-37.801090	-177.021800	 12.602060	-46.901910	 9.838154	 58.646180	 85.245030	-56.789220	 2.361082	 32.685040	 0.095926	-1.971369	 7.787968	 0.684503	 1.894994	 2.444341	 3.871296	-9.694145	-2.123976	-4.388579	-94.344840	 58.986420	 174.519100	 14.627890	 30.978310	-38.349990	-3.671235	-0.013981	-1.248646	 1.833997	-7.201384	-7.902403	-4.848316	 19.762300	-2.817285	-3.850739	 21.864710	 2.171471	-4.795004	 5.701620	 0.137823	-0.007350	-5.174873	 0.306978	-11.396310	 1.930923	 1.828542	 89.573320	 61.942090	 179.497000	-18.037600	 52.222610	 5.300459	-2.055165	-2.865582	 14.762130	-5.606757	 9.945653	-0.576091	 6.242487	 21.496180	-0.612511	 2.238547	 41.678830	-7.305098	 1.258001	 20.974280	 3.214652
 0.007566	-0.061364	 1.174363	 6.730504	 0.699418	-4.495304	 9.708498	-8.390683	-174.204900	 1.874762	-41.863360	 1.015877	 99.448940	 84.569210	-103.774700	-2.353001	 34.072790	-0.126772	-20.018390	-40.547570	-178.065000	 11.368640	-37.671380	 7.480800	 114.396800	 83.531200	-113.929600	 2.347264	 34.614460	 0.141269	-4.442383	 7.241136	 1.021207	 1.778661	 3.096336	 3.784542	-9.589702	-2.183919	-4.255096	-94.499630	 58.943460	 174.196100	 11.443180	 27.527200	-39.869010	-5.427046	 0.031999	-1.746825	 1.339645	-7.765428	-7.302207	-4.828559	 20.328530	-2.871574	-3.814075	 22.326130	 2.134231	-4.757569	 6.140771	 0.111878	 0.046777	-5.316830	 0.348228	-11.215830	 2.100827	 1.705317	 89.413640	 62.035140	 179.109100	-16.613170	 53.323200	 2.872008	-3.388502	-2.809369	 13.703930	-6.028232	 10.500440	-2.711761	 6.183435	 18.167340	-0.714051	 2.645044	 37.737460	-7.656587	 1.957040	 17.652260	 2.911004
 0.002865	-0.123725	 1.158387	 7.148343	 0.651802	-4.482270	 9.276053	-5.270118	-175.583000	 2.521862	-42.372380	 1.462268	 97.378790	 85.795970	-101.623400	-2.303998	 39.469080	-0.261480	-19.907960	-43.314810	-179.278800	 11.115570	-32.226310	 6.397223	 60.979450	 84.000830	-60.843710	 2.337599	 35.809610	 0.170186	-7.505261	 7.427907	 1.002788	 1.682528	 3.260028	 3.673980	-9.340926	-2.115862	-4.128807	-94.528540	 59.112080	 174.106600	 8.523520	 25.617790	-41.048830	-6.414279	 0.090511	-2.283125	 0.697204	-9.368862	-8.021575	-4.867090	 20.569040	-3.166523	-3.772874	 22.838100	 2.092396	-4.692994	 6.891857	 0.066786	 0.156392	-5.455734	 0.301692	-10.790230	 2.424447	 1.430069	 89.356740	 61.757560	 178.981900	-14.829340	 53.746950	-0.095656	-4.242319	-2.739667	 13.383450	-5.970440	 9.983923	-4.577677	 6.178408	 14.787410	-0.518873	 2.969807	 34.178450	-7.930071	 2.630703	 14.305160	 2.652651
-0.004262	-0.178774	 1.140624	 7.518185	 0.217615	-3.525069	 9.096165	-2.411313	-178.154600	 2.092652	-43.350980	 1.194602	 39.401020	 85.918650	-42.165920	-2.150496	 49.371800	-0.562986	-18.203100	-47.034320	 179.703600	 7.213732	-32.725160	 4.329323	 4.320494	 75.812160	 1.133781	 2.340910	 35.412510	 0.160500	-10.395910	 7.522423	 0.122788	 1.653054	 4.130482	 3.605041	-9.110750	-2.147681	-4.178042	-94.450990	 59.378160	 174.228500	 6.715392	 24.384120	-42.397670	-7.586926	 0.163399	-2.790379	 0.018905	-10.053220	-8.315517	-4.894202	 20.720390	-3.372667	-3.753294	 23.078990	 2.072513	-4.624186	 7.683239	 0.018258	 0.263391	-5.475483	 0.239710	-10.312760	 2.775547	 1.708785	 89.353620	 61.411090	 178.987100	-13.574150	 53.750280	-2.667239	-4.515714	-2.861554	 14.380220	-6.425057	 9.270875	-5.557418	 6.275856	 11.896220	 0.055929	 3.136561	 32.192270	-8.067485	 3.139475	 11.690770	 2.481349
-0.014641	-0.266250	 1.119027	 9.505043	-1.040558	-2.019098	 9.210050	 3.125588	 177.166800	 0.388902	-42.300840	 0.024355	 1.545102	 69.817070	 0.876468	-1.536104	 65.233130	-1.396471	-15.815720	-48.880950	 179.717600	 7.998146	-34.659950	 5.005976	-8.703955	 57.935410	 19.145650	 2.340750	 35.431900	 0.160965	-14.975930	 7.950104	-1.102926	 1.016578	 5.408824	 2.898476	-8.986502	-2.087958	-4.024617	-94.319930	 59.159500	 174.545400	 5.850368	 22.298520	-43.891930	-9.022755	 0.285276	-3.468641	 0.238426	-8.053355	-8.182163	-4.858414	 21.107030	-3.291578	-3.705688	 23.658190	 2.024196	-4.536458	 8.678925	-0.044297	 0.393450	-5.365590	 0.268899	-9.818128	 3.548635	 2.222584	 89.109990	 61.156730	 178.425300	-12.395630	 53.370830	-3.829271	-3.216696	-2.286149	 14.329210	-6.593851	 8.323972	-4.059435	 6.357031	 9.086237	 0.450178	 3.360676	 29.338210	-8.248439	 3.559764	 9.480783	 2.356098
-0.025327	-0.351904	 1.103397	 10.481290	-1.622627	-0.494940	 15.253030	 6.801577	 169.925400	 1.960309	-41.720840	 1.070011	-1.749460	 46.952200	 13.169150	-1.293237	 68.346340	-1.680529	-20.408320	-46.694050	 175.204400	 7.439121	-37.072410	 4.962920	-6.805193	 52.483800	 19.243180	 2.365930	 31.929370	 0.078578	-18.453590	 8.084807	-1.872527	-0.095340	 5.120056	 1.473946	-8.742815	-1.497368	-3.415664	-94.111820	 59.861940	 174.886800	 6.131089	 22.230650	-43.793950	-8.695595	 0.408547	-4.093314	 1.408547	-6.509138	-8.909109	-4.772882	 21.406470	-2.877941	-3.632024	 24.536880	 1.949457	-4.478667	 9.326556	-0.085913	 0.355379	-5.367208	 0.179098	-9.488690	 4.180760	 2.379663	 88.990040	 60.303430	 178.196600	-11.712180	 52.389420	-5.307811	-0.653340	-1.828936	 16.080890	-5.540825	 6.920849	-2.182965	 6.396844	 8.848005	 0.611558	 3.386329	 28.997290	-8.268861	 3.677965	 8.851851	 2.323609
-0.035112	-0.443780	 1.093045	 8.479261	-2.358402	 0.778892	 23.287910	 7.395846	 162.677900	-0.957760	-44.821930	-0.923843	 3.668302	 40.395820	 12.095130	-2.375714	 30.510600	-0.045120	-21.221390	-44.003210	 171.947800	 6.469033	-41.798040	 4.831047	-6.772683	 56.440990	 20.722100	 2.374335	 30.484160	 0.045997	-19.495910	 8.765953	-2.681107	-0.781953	 3.416155	 0.905712	-7.981505	-0.367366	-3.137206	-94.026390	 59.672730	 175.101600	 6.454014	 22.884330	-42.028110	-8.535006	 0.556222	-4.711878	 1.527227	-6.218465	-8.102646	-4.712741	 22.167660	-2.754090	-3.559370	 25.383200	 1.875775	-4.398749	 10.211450	-0.143984	 0.238660	-5.393116	 0.157217	-9.195142	 4.364120	 2.592595	 89.165370	 60.290220	 178.596300	-11.996880	 52.126220	-5.054970	 1.635252	-1.004944	 15.603820	-4.374435	 5.286378	-0.658693	 6.402614	 10.805190	 0.625017	 3.226558	 31.072460	-8.140689	 3.483723	 9.883741	 2.377638
-0.046491	-0.551632	 1.094923	 6.359899	-3.137127	 1.511124	 24.436640	 5.706880	 159.235800	-4.644153	-53.594610	-4.025256	 3.854374	 52.250210	 10.415300	-2.380993	 29.488640	-0.022544	-21.049870	-42.457760	 170.775700	 6.436095	-49.986890	 5.521862	-8.134867	 65.279980	 22.338070	 2.374317	 30.486570	 0.046053	-20.011050	 9.515080	-3.040182	-1.066770	 0.740866	 0.519112	-7.015533	 1.295414	-2.503951	-93.895420	 59.497920	 175.410100	 7.667154	 24.472070	-39.495730	-8.309582	 0.758204	-5.426762	 1.000931	-6.208800	-7.224526	-4.609144	 23.562160	-2.546700	-3.472142	 26.373440	 1.787362	-4.259800	 11.720060	-0.246310	 0.087842	-5.264852	 0.025508	-8.746829	 4.465659	 2.471517	 89.475200	 60.124460	 179.305200	-13.382950	 52.007000	-1.568800	 5.078868	 0.344542	 10.408410	-2.759646	 2.699841	 0.167688	 6.376140	 14.101080	 0.476744	 2.967707	 34.202740	-7.928330	 3.037643	 12.219580	 2.513932
-0.055004	-0.659230	 1.104600	 4.808098	-3.675892	 1.421021	 18.259740	 1.912835	 162.602900	-3.321760	-66.079860	-3.359647	-5.617916	 68.691830	 16.881200	-2.375847	 30.483970	-0.044537	-20.291420	-39.099010	 171.670800	 4.992796	-55.476910	 4.743126	-9.993658	 73.470810	 24.554810	 2.374305	 30.489170	 0.046111	-19.841400	 10.022090	-2.808230	-1.098937	-0.871741	 0.316641	-6.183928	 2.389656	-1.900195	-93.741620	 59.842120	 175.699400	 9.744805	 27.306810	-37.369760	-6.755407	 0.979163	-6.126795	 0.694598	-3.622958	-5.400833	-4.577287	 24.300550	-2.589779	-3.399129	 27.181400	 1.713381	-4.149662	 12.889170	-0.328600	-0.093179	-5.058046	-0.064926	-8.346805	 4.465600	 2.374046	 89.593990	 59.756610	 179.579100	-15.554330	 51.411300	 1.799386	 8.953176	 0.939854	 13.229670	-1.676212	 0.661250	 0.907293	 6.376524	 17.003570	 0.437610	 2.726515	 36.881100	-7.725858	 2.526472	 14.831890	 2.690319
-0.059351	-0.742489	 1.116897	 3.395942	-3.729160	 1.307596	 14.729250	-6.170190	 166.389700	-2.075091	-77.766910	-2.372747	-43.688790	 81.902040	 53.236970	-2.370406	 31.446640	-0.066113	-19.655290	-35.171170	 172.552500	 2.925046	-57.373860	 3.103066	-14.068750	 79.166660	 29.032730	 2.373031	 30.720510	 0.051276	-19.042740	 10.131660	-2.771263	-0.926927	-0.974417	 0.530172	-5.489961	 2.481414	-1.768461	-93.577020	 60.175780	 176.018900	 11.810380	 30.313010	-35.902810	-5.025484	 1.188080	-6.718319	 1.485808	-1.682018	-3.364641	-4.541585	 25.126200	-2.645446	-3.350763	 27.706390	 1.664393	-4.104473	 13.362060	-0.362659	-0.271346	-4.855912	-0.132522	-8.015761	 4.244040	 2.748623	 89.756320	 59.901330	 179.942200	-17.302810	 49.195470	 10.787000	 12.460350	 1.318849	 8.269526	-1.393104	 0.911070	 1.656053	 6.378501	 18.956860	 0.414101	 2.541715	 38.790390	-7.568125	 2.164042	 16.638420	 2.827915
-0.061569	-0.856227	 1.138392	 1.588157	-3.335579	 0.971584	 17.057560	-18.968880	 170.047700	-17.942190	-82.000260	-18.128570	-146.494600	 82.995540	 153.174000	-2.384227	 28.808150	-0.007701	-17.693000	-28.918240	 174.520900	 0.224772	-56.655970	 0.820960	-23.164040	 84.788380	 38.147080	 2.368330	 31.535100	 0.069618	-17.450740	 9.930256	-2.568437	-0.300228	-1.181685	 0.769591	-4.527131	 2.510660	-1.625803	-93.234630	 60.296320	 176.763400	 14.871790	 35.130500	-33.408590	-4.356231	 1.488885	-7.447674	 2.250205	 0.736481	-0.771215	-4.511796	 25.761220	-2.676535	-3.298071	 28.269270	 1.611048	-4.064413	 13.777980	-0.392992	-0.422996	-4.774880	-0.196563	-7.466344	 4.071584	 2.965179	 90.085660	 60.354790	-179.307700	-19.004300	 45.734620	 19.913010	 16.222430	 1.575623	 7.464914	-2.153330	 1.321289	 2.894004	 6.377905	 20.105660	 0.386051	 2.424654	 39.940240	-7.467153	 1.954993	 17.662200	 2.911840
